<svg width="113" height="26" viewBox="0 0 113 26" fill="none" xmlns="http://www.w3.org/2000/svg">
<path d="M0.689686 1.192H12.8177V6.92H9.93769V25H3.56969V6.92H0.689686V1.192ZM28.0287 1.192L24.2207 16.424V25H17.8527V16.424L13.7247 1.192H20.0607L21.2127 8.328L22.2687 1.192H28.0287ZM38.3494 16.2H35.3094V25H28.9414V1.192H38.2854C39.6721 1.192 40.7814 1.59733 41.6134 2.408C42.4454 3.19733 42.8614 4.43467 42.8614 6.12V11.176C42.8614 12.776 42.4348 14.0133 41.5814 14.888C40.7281 15.7627 39.6508 16.2 38.3494 16.2ZM35.3094 5.896V11.272H35.7574C36.0561 11.272 36.2481 11.208 36.3334 11.08C36.4401 10.9307 36.4934 10.6747 36.4934 10.312V6.824C36.4934 6.48267 36.4401 6.248 36.3334 6.12C36.2481 5.97067 36.0561 5.896 35.7574 5.896H35.3094ZM44.3009 1.192H55.2449V6.92H50.5409V9.768H54.4129V15.624H50.5409V19.208H55.4049V25H44.3009V1.192ZM67.5739 0.839998H69.0779C73.1099 0.839998 75.1259 2.536 75.1259 5.928V8.392H68.9499V6.28C68.9499 5.74667 68.7366 5.48 68.3099 5.48C67.8833 5.48 67.6699 5.74667 67.6699 6.28V6.984C67.6699 7.688 67.9899 8.264 68.6299 8.712L71.6699 10.856C73.0566 11.816 74.0273 12.7867 74.5819 13.768C75.1366 14.728 75.4139 15.9867 75.4139 17.544V18.792C75.4139 20.7973 74.8593 22.3973 73.7499 23.592C72.6619 24.7653 70.9979 25.352 68.7579 25.352H67.2539C63.0726 25.352 60.9819 23.4853 60.9819 19.752V16.456H67.2539V19.24C67.2539 19.9013 67.4779 20.232 67.9259 20.232C68.3739 20.232 68.5979 19.88 68.5979 19.176V18.312C68.5979 17.7573 68.5339 17.3413 68.4059 17.064C68.2779 16.7653 67.9686 16.4347 67.4779 16.072L64.4379 13.928C62.2619 12.392 61.1739 10.312 61.1739 7.688V6.472C61.1739 4.744 61.6966 3.37867 62.7419 2.376C63.8086 1.352 65.4193 0.839998 67.5739 0.839998ZM83.1834 15.88V25H76.7834V1.192H83.1834V9.32H84.5594V1.192H90.9594V25H84.5594V15.88H83.1834ZM98.9484 1.192V25H92.5484V1.192H98.9484ZM100.403 1.192H112.531V6.92H109.651V25H103.283V6.92H100.403V1.192Z" fill="white"/>
</svg>
