<svg width="52" height="24" viewBox="0 0 52 24" fill="none" xmlns="http://www.w3.org/2000/svg">
<path d="M25.9258 0.790771C32.98 0.790828 39.3346 2.10696 43.9014 4.20581C48.5245 6.33065 51.0809 9.13388 51.0811 11.9998C51.0811 14.8657 48.5247 17.6698 43.9014 19.7947C39.3346 21.8935 32.9799 23.2087 25.9258 23.2087C18.8714 23.2087 12.5161 21.8935 7.94922 19.7947C3.3259 17.6698 0.769531 14.8657 0.769531 11.9998C0.7697 9.13388 3.32606 6.33065 7.94922 4.20581C12.5161 2.1069 18.8713 0.790771 25.9258 0.790771Z" stroke="white" stroke-width="1.30545"/>
<path d="M25.9434 0.790771C31.1554 0.790771 35.8428 2.09532 39.2061 4.1687C42.5796 6.24842 44.5311 9.035 44.5312 11.9998C44.5312 14.9646 42.5797 17.752 39.2061 19.8318C35.8429 21.9051 31.1553 23.2087 25.9434 23.2087C20.7315 23.2087 16.0438 21.9051 12.6807 19.8318C9.30727 17.752 7.35547 14.9645 7.35547 11.9998C7.35559 9.03515 9.30749 6.24839 12.6807 4.1687C16.0438 2.09537 20.7315 0.790833 25.9434 0.790771Z" stroke="white" stroke-width="1.30545"/>
<path d="M25.4766 0.790771C31.8873 0.790783 37.0506 5.8279 37.0508 11.9998C37.0508 18.1717 31.8874 23.2087 25.4766 23.2087C19.0657 23.2087 13.9023 18.1718 13.9023 11.9998C13.9025 5.82789 19.0658 0.790771 25.4766 0.790771Z" stroke="white" stroke-width="1.30545"/>
<line x1="0.773438" y1="11.204" x2="51.7383" y2="11.204" stroke="white" stroke-width="1.30545"/>
<line x1="5.99219" y1="5.18565" x2="45.8084" y2="5.18565" stroke="white" stroke-width="1.30545"/>
<line x1="4.01557" y1="17.5682" x2="47.855" y2="17.5643" stroke="white" stroke-width="1.30545"/>
<line x1="25.2848" y1="23.5061" x2="25.2848" y2="0.138491" stroke="white" stroke-width="1.30545"/>
</svg>
