<svg width="115" height="28" viewBox="0 0 115 28" fill="none" xmlns="http://www.w3.org/2000/svg">
<mask id="path-1-outside-1_309_19870" maskUnits="userSpaceOnUse" x="-0.265625" y="0" width="115" height="28" fill="black">
<rect fill="white" x="-0.265625" width="115" height="28"/>
<path d="M1.30687 2.192H13.4349V7.92H10.5549V26H4.18687V7.92H1.30687V2.192ZM28.6459 2.192L24.8379 17.424V26H18.4699V17.424L14.3419 2.192H20.6779L21.8299 9.328L22.8859 2.192H28.6459ZM38.9666 17.2H35.9266V26H29.5586V2.192H38.9026C40.2893 2.192 41.3986 2.59733 42.2306 3.408C43.0626 4.19733 43.4786 5.43467 43.4786 7.12V12.176C43.4786 13.776 43.052 15.0133 42.1986 15.888C41.3453 16.7627 40.268 17.2 38.9666 17.2ZM35.9266 6.896V12.272H36.3746C36.6733 12.272 36.8653 12.208 36.9506 12.08C37.0573 11.9307 37.1106 11.6747 37.1106 11.312V7.824C37.1106 7.48267 37.0573 7.248 36.9506 7.12C36.8653 6.97067 36.6733 6.896 36.3746 6.896H35.9266ZM44.9181 2.192H55.8621V7.92H51.1581V10.768H55.0301V16.624H51.1581V20.208H56.0221V26H44.9181V2.192ZM68.1911 1.84H69.6951C73.7271 1.84 75.7431 3.536 75.7431 6.928V9.392H69.5671V7.28C69.5671 6.74667 69.3538 6.48 68.9271 6.48C68.5005 6.48 68.2871 6.74667 68.2871 7.28V7.984C68.2871 8.688 68.6071 9.264 69.2471 9.712L72.2871 11.856C73.6738 12.816 74.6445 13.7867 75.1991 14.768C75.7538 15.728 76.0311 16.9867 76.0311 18.544V19.792C76.0311 21.7973 75.4765 23.3973 74.3671 24.592C73.2791 25.7653 71.6151 26.352 69.3751 26.352H67.8711C63.6898 26.352 61.5991 24.4853 61.5991 20.752V17.456H67.8711V20.24C67.8711 20.9013 68.0951 21.232 68.5431 21.232C68.9911 21.232 69.2151 20.88 69.2151 20.176V19.312C69.2151 18.7573 69.1511 18.3413 69.0231 18.064C68.8951 17.7653 68.5858 17.4347 68.0951 17.072L65.0551 14.928C62.8791 13.392 61.7911 11.312 61.7911 8.688V7.472C61.7911 5.744 62.3138 4.37867 63.3591 3.376C64.4258 2.352 66.0365 1.84 68.1911 1.84ZM83.8006 16.88V26H77.4006V2.192H83.8006V10.32H85.1766V2.192H91.5766V26H85.1766V16.88H83.8006ZM99.5656 2.192V26H93.1656V2.192H99.5656ZM101.021 2.192H113.149V7.92H110.269V26H103.901V7.92H101.021V2.192Z"/>
</mask>
<path d="M1.30687 2.192V1.12087H0.235742V2.192H1.30687ZM13.4349 2.192H14.506V1.12087H13.4349V2.192ZM13.4349 7.92V8.99113H14.506V7.92H13.4349ZM10.5549 7.92V6.84887H9.48374V7.92H10.5549ZM10.5549 26V27.0711H11.626V26H10.5549ZM4.18687 26H3.11574V27.0711H4.18687V26ZM4.18687 7.92H5.25801V6.84887H4.18687V7.92ZM1.30687 7.92H0.235742V8.99113H1.30687V7.92ZM1.30687 2.192V3.26313H13.4349V2.192V1.12087H1.30687V2.192ZM13.4349 2.192H12.3637V7.92H13.4349H14.506V2.192H13.4349ZM13.4349 7.92V6.84887H10.5549V7.92V8.99113H13.4349V7.92ZM10.5549 7.92H9.48374V26H10.5549H11.626V7.92H10.5549ZM10.5549 26V24.9289H4.18687V26V27.0711H10.5549V26ZM4.18687 26H5.25801V7.92H4.18687H3.11574V26H4.18687ZM4.18687 7.92V6.84887H1.30687V7.92V8.99113H4.18687V7.92ZM1.30687 7.92H2.37801V2.192H1.30687H0.235742V7.92H1.30687ZM28.6459 2.192L29.685 2.45179L30.0178 1.12087H28.6459V2.192ZM24.8379 17.424L23.7987 17.1642L23.7667 17.2921V17.424H24.8379ZM24.8379 26V27.0711H25.909V26H24.8379ZM18.4699 26H17.3987V27.0711H18.4699V26ZM18.4699 17.424H19.541V17.2814L19.5037 17.1438L18.4699 17.424ZM14.3419 2.192V1.12087H12.9418L13.308 2.47218L14.3419 2.192ZM20.6779 2.192L21.7353 2.02129L21.59 1.12087H20.6779V2.192ZM21.8299 9.328L20.7724 9.49871L22.8895 9.4848L21.8299 9.328ZM22.8859 2.192V1.12087H21.9616L21.8263 2.0352L22.8859 2.192ZM28.6459 2.192L27.6067 1.93221L23.7987 17.1642L24.8379 17.424L25.877 17.6838L29.685 2.45179L28.6459 2.192ZM24.8379 17.424H23.7667V26H24.8379H25.909V17.424H24.8379ZM24.8379 26V24.9289H18.4699V26V27.0711H24.8379V26ZM18.4699 26H19.541V17.424H18.4699H17.3987V26H18.4699ZM18.4699 17.424L19.5037 17.1438L15.3757 1.91182L14.3419 2.192L13.308 2.47218L17.436 17.7042L18.4699 17.424ZM14.3419 2.192V3.26313H20.6779V2.192V1.12087H14.3419V2.192ZM20.6779 2.192L19.6204 2.36271L20.7724 9.49871L21.8299 9.328L22.8873 9.15729L21.7353 2.02129L20.6779 2.192ZM21.8299 9.328L22.8895 9.4848L23.9455 2.3488L22.8859 2.192L21.8263 2.0352L20.7703 9.1712L21.8299 9.328ZM22.8859 2.192V3.26313H28.6459V2.192V1.12087H22.8859V2.192ZM35.9266 17.2V16.1289H34.8555V17.2H35.9266ZM35.9266 26V27.0711H36.9978V26H35.9266ZM29.5586 26H28.4875V27.0711H29.5586V26ZM29.5586 2.192V1.12087H28.4875V2.192H29.5586ZM42.2306 3.408L41.4831 4.17518L41.4882 4.18016L41.4934 4.18507L42.2306 3.408ZM42.1986 15.888L41.4319 15.14L42.1986 15.888ZM35.9266 6.896V5.82487H34.8555V6.896H35.9266ZM35.9266 12.272H34.8555V13.3431H35.9266V12.272ZM36.9506 12.08L36.079 11.4574L36.069 11.4715L36.0594 11.4858L36.9506 12.08ZM36.9506 7.12L36.0206 7.65143L36.0674 7.73329L36.1278 7.80572L36.9506 7.12ZM38.9666 17.2V16.1289H35.9266V17.2V18.2711H38.9666V17.2ZM35.9266 17.2H34.8555V26H35.9266H36.9978V17.2H35.9266ZM35.9266 26V24.9289H29.5586V26V27.0711H35.9266V26ZM29.5586 26H30.6298V2.192H29.5586H28.4875V26H29.5586ZM29.5586 2.192V3.26313H38.9026V2.192V1.12087H29.5586V2.192ZM38.9026 2.192V3.26313C40.0678 3.26313 40.889 3.5963 41.4831 4.17518L42.2306 3.408L42.9781 2.64082C41.9082 1.59836 40.5108 1.12087 38.9026 1.12087V2.192ZM42.2306 3.408L41.4934 4.18507C42.0291 4.6933 42.4075 5.58994 42.4075 7.12H43.4786H44.5498C44.5498 5.2794 44.0961 3.70137 42.9678 2.63093L42.2306 3.408ZM43.4786 7.12H42.4075V12.176H43.4786H44.5498V7.12H43.4786ZM43.4786 12.176H42.4075C42.4075 13.5861 42.0354 14.5215 41.4319 15.14L42.1986 15.888L42.9653 16.636C44.0685 15.5052 44.5498 13.9659 44.5498 12.176H43.4786ZM42.1986 15.888L41.4319 15.14C40.7943 15.7936 40.0002 16.1289 38.9666 16.1289V17.2V18.2711C40.5358 18.2711 41.8963 17.7318 42.9653 16.636L42.1986 15.888ZM35.9266 6.896H34.8555V12.272H35.9266H36.9978V6.896H35.9266ZM35.9266 12.272V13.3431H36.3746V12.272V11.2009H35.9266V12.272ZM36.3746 12.272V13.3431C36.7145 13.3431 37.4303 13.2915 37.8419 12.6742L36.9506 12.08L36.0594 11.4858C36.1853 11.297 36.3454 11.2273 36.4039 11.2078C36.4558 11.1905 36.4583 11.2009 36.3746 11.2009V12.272ZM36.9506 12.08L37.8222 12.7026C38.1349 12.2649 38.1818 11.7155 38.1818 11.312H37.1106H36.0395C36.0395 11.4459 36.0292 11.523 36.022 11.5575C36.0187 11.5733 36.018 11.5706 36.0243 11.5547C36.0306 11.5388 36.0465 11.5029 36.079 11.4574L36.9506 12.08ZM37.1106 11.312H38.1818V7.824H37.1106H36.0395V11.312H37.1106ZM37.1106 7.824H38.1818C38.1818 7.45195 38.1401 6.87427 37.7735 6.43428L36.9506 7.12L36.1278 7.80572C36.0797 7.74811 36.0536 7.69764 36.0406 7.66835C36.0278 7.63927 36.0249 7.62396 36.0261 7.62938C36.0273 7.63436 36.0309 7.65242 36.0341 7.68676C36.0372 7.72071 36.0395 7.76595 36.0395 7.824H37.1106ZM36.9506 7.12L37.8806 6.58857C37.4951 5.91385 36.7688 5.82487 36.3746 5.82487V6.896V7.96713C36.4458 7.96713 36.4245 7.97757 36.3544 7.9503C36.2687 7.91695 36.1226 7.82988 36.0206 7.65143L36.9506 7.12ZM36.3746 6.896V5.82487H35.9266V6.896V7.96713H36.3746V6.896ZM44.9181 2.192V1.12087H43.847V2.192H44.9181ZM55.8621 2.192H56.9333V1.12087H55.8621V2.192ZM55.8621 7.92V8.99113H56.9333V7.92H55.8621ZM51.1581 7.92V6.84887H50.087V7.92H51.1581ZM51.1581 10.768H50.087V11.8391H51.1581V10.768ZM55.0301 10.768H56.1013V9.69687H55.0301V10.768ZM55.0301 16.624V17.6951H56.1013V16.624H55.0301ZM51.1581 16.624V15.5529H50.087V16.624H51.1581ZM51.1581 20.208H50.087V21.2791H51.1581V20.208ZM56.0221 20.208H57.0933V19.1369H56.0221V20.208ZM56.0221 26V27.0711H57.0933V26H56.0221ZM44.9181 26H43.847V27.0711H44.9181V26ZM44.9181 2.192V3.26313H55.8621V2.192V1.12087H44.9181V2.192ZM55.8621 2.192H54.791V7.92H55.8621H56.9333V2.192H55.8621ZM55.8621 7.92V6.84887H51.1581V7.92V8.99113H55.8621V7.92ZM51.1581 7.92H50.087V10.768H51.1581H52.2293V7.92H51.1581ZM51.1581 10.768V11.8391H55.0301V10.768V9.69687H51.1581V10.768ZM55.0301 10.768H53.959V16.624H55.0301H56.1013V10.768H55.0301ZM55.0301 16.624V15.5529H51.1581V16.624V17.6951H55.0301V16.624ZM51.1581 16.624H50.087V20.208H51.1581H52.2293V16.624H51.1581ZM51.1581 20.208V21.2791H56.0221V20.208V19.1369H51.1581V20.208ZM56.0221 20.208H54.951V26H56.0221H57.0933V20.208H56.0221ZM56.0221 26V24.9289H44.9181V26V27.0711H56.0221V26ZM44.9181 26H45.9893V2.192H44.9181H43.847V26H44.9181ZM75.7431 9.392V10.4631H76.8143V9.392H75.7431ZM69.5671 9.392H68.496V10.4631H69.5671V9.392ZM69.2471 9.712L69.8645 8.83666L69.8614 8.83449L69.2471 9.712ZM72.2871 11.856L71.6698 12.7314L71.6774 12.7367L72.2871 11.856ZM75.1991 14.768L74.2666 15.2951L74.2717 15.3039L75.1991 14.768ZM74.3671 24.592L73.5822 23.8631L73.5817 23.8637L74.3671 24.592ZM61.5991 17.456V16.3849H60.528V17.456H61.5991ZM67.8711 17.456H68.9423V16.3849H67.8711V17.456ZM69.0231 18.064L68.0386 18.4859L68.0444 18.4995L68.0506 18.5129L69.0231 18.064ZM68.0951 17.072L68.7318 16.2106L68.7222 16.2035L68.7125 16.1967L68.0951 17.072ZM65.0551 14.928L64.4374 15.8031L64.4378 15.8033L65.0551 14.928ZM63.3591 3.376L64.1006 4.14902L64.1009 4.1487L63.3591 3.376ZM68.1911 1.84V2.91113H69.6951V1.84V0.768866H68.1911V1.84ZM69.6951 1.84V2.91113C71.5868 2.91113 72.806 3.31286 73.5416 3.93166C74.2417 4.52062 74.672 5.45034 74.672 6.928H75.7431H76.8143C76.8143 5.01366 76.2366 3.39938 74.9207 2.29234C73.6402 1.21513 71.8354 0.768866 69.6951 0.768866V1.84ZM75.7431 6.928H74.672V9.392H75.7431H76.8143V6.928H75.7431ZM75.7431 9.392V8.32087H69.5671V9.392V10.4631H75.7431V9.392ZM69.5671 9.392H70.6383V7.28H69.5671H68.496V9.392H69.5671ZM69.5671 7.28H70.6383C70.6383 6.89889 70.5667 6.41484 70.2435 6.01087C69.8838 5.56125 69.3769 5.40887 68.9271 5.40887V6.48V7.55113C68.9241 7.55113 68.8721 7.55078 68.7952 7.51874C68.7117 7.48397 68.6315 7.42516 68.5707 7.34913C68.4609 7.21182 68.496 7.12777 68.496 7.28H69.5671ZM68.9271 6.48V5.40887C68.4774 5.40887 67.9704 5.56125 67.6107 6.01087C67.2875 6.41484 67.216 6.89889 67.216 7.28H68.2871H69.3583C69.3583 7.12777 69.3934 7.21182 69.2835 7.34913C69.2227 7.42516 69.1425 7.48397 69.0591 7.51874C68.9822 7.55078 68.9302 7.55113 68.9271 7.55113V6.48ZM68.2871 7.28H67.216V7.984H68.2871H69.3583V7.28H68.2871ZM68.2871 7.984H67.216C67.216 9.07996 67.7431 9.9667 68.6329 10.5895L69.2471 9.712L69.8614 8.83449C69.4711 8.5613 69.3583 8.29604 69.3583 7.984H68.2871ZM69.2471 9.712L68.6298 10.5873L71.6698 12.7313L72.2871 11.856L72.9045 10.9807L69.8645 8.83666L69.2471 9.712ZM72.2871 11.856L71.6774 12.7367C72.9915 13.6464 73.8211 14.5068 74.2666 15.2951L75.1991 14.768L76.1316 14.2409C75.4678 13.0666 74.3561 11.9856 72.8968 10.9753L72.2871 11.856ZM75.1991 14.768L74.2717 15.3039C74.7017 16.0481 74.96 17.1026 74.96 18.544H76.0311H77.1023C77.1023 16.8708 76.8059 15.4079 76.1266 14.2321L75.1991 14.768ZM76.0311 18.544H74.96V19.792H76.0311H77.1023V18.544H76.0311ZM76.0311 19.792H74.96C74.96 21.5923 74.4675 22.9098 73.5822 23.8631L74.3671 24.592L75.152 25.3209C76.4854 23.8849 77.1023 22.0024 77.1023 19.792H76.0311ZM74.3671 24.592L73.5817 23.8637C72.7669 24.7424 71.4395 25.2809 69.3751 25.2809V26.352V27.4231C71.7908 27.4231 73.7914 26.7882 75.1525 25.3203L74.3671 24.592ZM69.3751 26.352V25.2809H67.8711V26.352V27.4231H69.3751V26.352ZM67.8711 26.352V25.2809C65.9175 25.2809 64.6524 24.8422 63.8805 24.153C63.1318 23.4845 62.6703 22.4202 62.6703 20.752H61.5991H60.528C60.528 22.8172 61.1118 24.5529 62.4537 25.751C63.7725 26.9285 65.6434 27.4231 67.8711 27.4231V26.352ZM61.5991 20.752H62.6703V17.456H61.5991H60.528V20.752H61.5991ZM61.5991 17.456V18.5271H67.8711V17.456V16.3849H61.5991V17.456ZM67.8711 17.456H66.8V20.24H67.8711H68.9423V17.456H67.8711ZM67.8711 20.24H66.8C66.8 20.6581 66.8647 21.1602 67.1523 21.5847C67.4904 22.0838 68.0144 22.3031 68.5431 22.3031V21.232V20.1609C68.5632 20.1609 68.6328 20.165 68.722 20.2089C68.8161 20.2552 68.8848 20.3225 68.9259 20.3833C68.9623 20.4369 68.9642 20.4658 68.958 20.4381C68.9517 20.4106 68.9423 20.3483 68.9423 20.24H67.8711ZM68.5431 21.232V22.3031C69.101 22.3031 69.6254 22.0544 69.9508 21.5431C70.2239 21.1139 70.2863 20.6071 70.2863 20.176H69.2151H68.144C68.144 20.2985 68.1339 20.375 68.1253 20.4157C68.1165 20.4574 68.1138 20.4395 68.1434 20.3929C68.1777 20.3392 68.242 20.2686 68.3401 20.2172C68.435 20.1675 68.5133 20.1609 68.5431 20.1609V21.232ZM69.2151 20.176H70.2863V19.312H69.2151H68.144V20.176H69.2151ZM69.2151 19.312H70.2863C70.2863 18.7086 70.2219 18.1053 69.9957 17.6151L69.0231 18.064L68.0506 18.5129C68.0803 18.5774 68.144 18.806 68.144 19.312H69.2151ZM69.0231 18.064L70.0077 17.6421C69.764 17.0736 69.2624 16.6028 68.7318 16.2106L68.0951 17.072L67.4585 17.9334C67.6682 18.0884 67.815 18.2191 67.9129 18.3238C68.0136 18.4314 68.0387 18.4861 68.0386 18.4859L69.0231 18.064ZM68.0951 17.072L68.7125 16.1967L65.6725 14.0527L65.0551 14.928L64.4378 15.8033L67.4778 17.9473L68.0951 17.072ZM65.0551 14.928L65.6728 14.0529C63.7761 12.714 62.8623 10.9578 62.8623 8.688H61.7911H60.72C60.72 11.6662 61.9822 14.07 64.4374 15.8031L65.0551 14.928ZM61.7911 8.688H62.8623V7.472H61.7911H60.72V8.688H61.7911ZM61.7911 7.472H62.8623C62.8623 5.97503 63.306 4.91114 64.1006 4.14902L63.3591 3.376L62.6177 2.60298C61.3215 3.84619 60.72 5.51297 60.72 7.472H61.7911ZM63.3591 3.376L64.1009 4.1487C64.8929 3.38838 66.1874 2.91113 68.1911 2.91113V1.84V0.768866C65.8855 0.768866 63.9587 1.31561 62.6173 2.6033L63.3591 3.376ZM83.8006 16.88V15.8089H82.7295V16.88H83.8006ZM83.8006 26V27.0711H84.8718V26H83.8006ZM77.4006 26H76.3295V27.0711H77.4006V26ZM77.4006 2.192V1.12087H76.3295V2.192H77.4006ZM83.8006 2.192H84.8718V1.12087H83.8006V2.192ZM83.8006 10.32H82.7295V11.3911H83.8006V10.32ZM85.1766 10.32V11.3911H86.2478V10.32H85.1766ZM85.1766 2.192V1.12087H84.1055V2.192H85.1766ZM91.5766 2.192H92.6478V1.12087H91.5766V2.192ZM91.5766 26V27.0711H92.6478V26H91.5766ZM85.1766 26H84.1055V27.0711H85.1766V26ZM85.1766 16.88H86.2478V15.8089H85.1766V16.88ZM83.8006 16.88H82.7295V26H83.8006H84.8718V16.88H83.8006ZM83.8006 26V24.9289H77.4006V26V27.0711H83.8006V26ZM77.4006 26H78.4718V2.192H77.4006H76.3295V26H77.4006ZM77.4006 2.192V3.26313H83.8006V2.192V1.12087H77.4006V2.192ZM83.8006 2.192H82.7295V10.32H83.8006H84.8718V2.192H83.8006ZM83.8006 10.32V11.3911H85.1766V10.32V9.24887H83.8006V10.32ZM85.1766 10.32H86.2478V2.192H85.1766H84.1055V10.32H85.1766ZM85.1766 2.192V3.26313H91.5766V2.192V1.12087H85.1766V2.192ZM91.5766 2.192H90.5055V26H91.5766H92.6478V2.192H91.5766ZM91.5766 26V24.9289H85.1766V26V27.0711H91.5766V26ZM85.1766 26H86.2478V16.88H85.1766H84.1055V26H85.1766ZM85.1766 16.88V15.8089H83.8006V16.88V17.9511H85.1766V16.88ZM99.5656 2.192H100.637V1.12087H99.5656V2.192ZM99.5656 26V27.0711H100.637V26H99.5656ZM93.1656 26H92.0945V27.0711H93.1656V26ZM93.1656 2.192V1.12087H92.0945V2.192H93.1656ZM99.5656 2.192H98.4945V26H99.5656H100.637V2.192H99.5656ZM99.5656 26V24.9289H93.1656V26V27.0711H99.5656V26ZM93.1656 26H94.2368V2.192H93.1656H92.0945V26H93.1656ZM93.1656 2.192V3.26313H99.5656V2.192V1.12087H93.1656V2.192ZM101.021 2.192V1.12087H99.9495V2.192H101.021ZM113.149 2.192H114.22V1.12087H113.149V2.192ZM113.149 7.92V8.99113H114.22V7.92H113.149ZM110.269 7.92V6.84887H109.197V7.92H110.269ZM110.269 26V27.0711H111.34V26H110.269ZM103.901 26H102.829V27.0711H103.901V26ZM103.901 7.92H104.972V6.84887H103.901V7.92ZM101.021 7.92H99.9495V8.99113H101.021V7.92ZM101.021 2.192V3.26313H113.149V2.192V1.12087H101.021V2.192ZM113.149 2.192H112.077V7.92H113.149H114.22V2.192H113.149ZM113.149 7.92V6.84887H110.269V7.92V8.99113H113.149V7.92ZM110.269 7.92H109.197V26H110.269H111.34V7.92H110.269ZM110.269 26V24.9289H103.901V26V27.0711H110.269V26ZM103.901 26H104.972V7.92H103.901H102.829V26H103.901ZM103.901 7.92V6.84887H101.021V7.92V8.99113H103.901V7.92ZM101.021 7.92H102.092V2.192H101.021H99.9495V7.92H101.021Z" fill="white" mask="url(#path-1-outside-1_309_19870)"/>
</svg>
