<svg width="151" height="92" viewBox="0 0 151 92" fill="none" xmlns="http://www.w3.org/2000/svg">
<g filter="url(#filter0_d_309_19750)">
<path d="M34.08 63.6V60.528C27.68 60.496 24.48 57.776 24.48 52.368V46.992H33.12V51.6C33.12 52.656 33.44 53.312 34.08 53.568V46.224L29.664 43.392C27.904 42.24 26.624 40.928 25.824 39.456C25.024 37.952 24.624 36.08 24.624 33.84V32.064C24.624 29.44 25.392 27.408 26.928 25.968C28.496 24.528 30.88 23.792 34.08 23.76V21.024H35.664V23.76C38.896 23.76 41.248 24.384 42.72 25.632C44.192 26.88 44.928 28.912 44.928 31.728V35.328H36.624V32.16C36.624 30.976 36.304 30.304 35.664 30.144V36.576L40.512 39.648C42.368 40.832 43.696 42.176 44.496 43.68C45.296 45.152 45.696 46.992 45.696 49.2V51.264C45.696 54.176 44.832 56.448 43.104 58.08C41.376 59.68 38.896 60.496 35.664 60.528V63.6H34.08ZM36.672 51.504V50.16C36.672 48.816 36.336 47.872 35.664 47.328V53.616C36.336 53.424 36.672 52.72 36.672 51.504ZM33.12 32.16V33.024C33.12 34.144 33.44 34.96 34.08 35.472V30.144C33.44 30.304 33.12 30.976 33.12 32.16ZM46.5581 24.288H64.7501V32.88H60.4301V60H50.8781V32.88H46.5581V24.288ZM86.6066 24.288L80.8946 47.136V60H71.3426V47.136L65.1506 24.288H74.6546L76.3826 34.992L77.9666 24.288H86.6066ZM101.128 46.8H96.5678V60H87.0158V24.288H101.032C103.112 24.288 104.776 24.896 106.024 26.112C107.272 27.296 107.896 29.152 107.896 31.68V39.264C107.896 41.664 107.256 43.52 105.976 44.832C104.696 46.144 103.08 46.8 101.128 46.8ZM96.5678 31.344V39.408H97.2398C97.6878 39.408 97.9758 39.312 98.1038 39.12C98.2638 38.896 98.3438 38.512 98.3438 37.968V32.736C98.3438 32.224 98.2638 31.872 98.1038 31.68C97.9758 31.456 97.6878 31.344 97.2398 31.344H96.5678ZM109.095 24.288H125.511V32.88H118.455V37.152H124.263V45.936H118.455V51.312H125.751V60H109.095V24.288Z" fill="#E6E4DD"/>
</g>
<defs>
<filter id="filter0_d_309_19750" x="0.0765629" y="0.623926" width="150.073" height="91.3762" filterUnits="userSpaceOnUse" color-interpolation-filters="sRGB">
<feFlood flood-opacity="0" result="BackgroundImageFix"/>
<feColorMatrix in="SourceAlpha" type="matrix" values="0 0 0 0 0 0 0 0 0 0 0 0 0 0 0 0 0 0 127 0" result="hardAlpha"/>
<feOffset dy="4"/>
<feGaussianBlur stdDeviation="12.2"/>
<feComposite in2="hardAlpha" operator="out"/>
<feColorMatrix type="matrix" values="0 0 0 0 0 0 0 0 0 0 0 0 0 0 0 0 0 0 0.69 0"/>
<feBlend mode="normal" in2="BackgroundImageFix" result="effect1_dropShadow_309_19750"/>
<feBlend mode="normal" in="SourceGraphic" in2="effect1_dropShadow_309_19750" result="shape"/>
</filter>
</defs>
</svg>
