<svg width="657" height="267" viewBox="0 0 657 267" fill="none" xmlns="http://www.w3.org/2000/svg">
<path d="M60.0176 266.5V247.3C20.0176 247.1 0.0175783 230.1 0.0175783 196.3V162.7H54.0176V191.5C54.0176 198.1 56.0176 202.2 60.0176 203.8V157.9L32.4176 140.2C21.4176 133 13.4176 124.8 8.41758 115.6C3.41758 106.2 0.917578 94.5 0.917578 80.5V69.4C0.917578 53 5.71758 40.3 15.3176 31.3C25.1176 22.3 40.0176 17.7 60.0176 17.5V0.399989H69.9176V17.5C90.1176 17.5 104.818 21.4 114.018 29.2C123.218 37 127.818 49.7 127.818 67.3V89.8H75.9176V70C75.9176 62.6 73.9176 58.4 69.9176 57.4V97.6L100.218 116.8C111.818 124.2 120.118 132.6 125.118 142C130.118 151.2 132.618 162.7 132.618 176.5V189.4C132.618 207.6 127.218 221.8 116.418 232C105.618 242 90.1176 247.1 69.9176 247.3V266.5H60.0176ZM76.2176 190.9V182.5C76.2176 174.1 74.1176 168.2 69.9176 164.8V204.1C74.1176 202.9 76.2176 198.5 76.2176 190.9ZM54.0176 70V75.4C54.0176 82.4 56.0176 87.5 60.0176 90.7V57.4C56.0176 58.4 54.0176 62.6 54.0176 70ZM144.006 20.8H257.706V74.5H230.706V244H171.006V74.5H144.006V20.8ZM400.309 20.8L364.609 163.6V244H304.909V163.6L266.209 20.8H325.609L336.409 87.7L346.309 20.8H400.309ZM497.066 161.5H468.566V244H408.866V20.8H496.466C509.466 20.8 519.866 24.6 527.666 32.2C535.466 39.6 539.366 51.2 539.366 67V114.4C539.366 129.4 535.366 141 527.366 149.2C519.366 157.4 509.266 161.5 497.066 161.5ZM468.566 64.9V115.3H472.766C475.566 115.3 477.366 114.7 478.166 113.5C479.166 112.1 479.666 109.7 479.666 106.3V73.6C479.666 70.4 479.166 68.2 478.166 67C477.366 65.6 475.566 64.9 472.766 64.9H468.566ZM552.861 20.8H655.461V74.5H611.361V101.2H647.661V156.1H611.361V189.7H656.961V244H552.861V20.8Z" fill="white"/>
</svg>
